<?xml version="1.0" encoding="UTF-8" standalone="no"?>
<!-- Created with Inkscape (http://www.inkscape.org/) -->

<svg
   version="1.1"
   id="svg1"
   width="340"
   height="340"
   viewBox="0 0 340 340"
   xmlns="http://www.w3.org/2000/svg"
   xmlns:svg="http://www.w3.org/2000/svg">
  <defs
     id="defs1" />
  <g
     id="layer1">
    <rect
       style="fill:#0069aa;fill-opacity:1;stroke:none;stroke-width:29.577;stroke-linecap:round;stroke-linejoin:round;stroke-dasharray:none;stroke-opacity:1;paint-order:normal"
       id="rect17"
       width="374.05948"
       height="354.2605"
       x="-18.384779"
       y="0.70710617" />
  </g>
  <path
     id="path8"
     style="baseline-shift:baseline;display:inline;overflow:visible;opacity:1;vector-effect:none;fill:#ffffff;fill-opacity:1;stroke-linecap:round;stroke-linejoin:round;enable-background:accumulate;stop-color:#000000;stop-opacity:1"
     d="m 171.22627,37.524303 a 21.0021,21.0021 0 0 0 -0.40234,0.03516 21,21 0 0 0 -1.5957,0.138672 21.0021,21.0021 0 0 0 -1.1875,0.15039 21,21 0 0 0 -1.59766,0.363282 21.0021,21.0021 0 0 0 -1.11523,0.292968 21,21 0 0 0 -1.55469,0.582032 21.0021,21.0021 0 0 0 -1.0625,0.435546 21,21 0 0 0 -0.30664,0.126954 21,21 0 0 0 -1.11133,0.638671 21.0021,21.0021 0 0 0 -1.04883,0.59961 21,21 0 0 0 -1.30469,0.951172 21.0021,21.0021 0 0 0 -0.9414,0.71875 21,21 0 0 0 -1.2207,1.171875 21.0021,21.0021 0 0 0 -0.78711,0.783203 21,21 0 0 0 -1.05469,1.330078 21.0021,21.0021 0 0 0 -0.6836,0.888672 21,21 0 0 0 -0.8789,1.488281 21.0021,21.0021 0 0 0 -0.50977,0.861328 l -0.0703,0.140625 L 70.20871,213.3915 c 19.57348,-11.66964 39.03738,-18.25204 57.65429,-21.15234 l 43.48438,-86.44141 0.0195,0.0391 58.66211,120.0879 C 226.20086,224.40754 222.40736,222.85942 218.32,221.54194 171.80556,206.54878 105.81409,208.242 44.972368,266.28017 a 21,21 0 0 0 -0.701172,29.68945 21,21 0 0 0 29.691404,0.70117 c 50.82547,-48.48345 95.36725,-46.7916 131.47071,-35.1543 36.10346,11.63732 60.45312,35.00586 60.45312,35.00586 a 21.0021,21.0021 0 0 0 33.51953,-24.26367 L 190.4919,49.299693 a 21,21 0 0 0 -17.41797,-11.732422 21,21 0 0 0 -1.84766,-0.0059 z" />
</svg>
