<?xml version="1.0" encoding="UTF-8" standalone="no"?>
<svg
   version="1.1"
   id="svg1"
   width="263.06546"
   height="264.95139"
   viewBox="0 0 263.06546 264.95139"
   xmlns="http://www.w3.org/2000/svg"
   xmlns:svg="http://www.w3.org/2000/svg">
  <defs
     id="defs1" />
  <path
     id="path8"
     style="baseline-shift:baseline;display:inline;overflow:visible;opacity:1;vector-effect:none;fill:#ffffff;fill-opacity:1;stroke-linecap:round;stroke-linejoin:round;enable-background:accumulate;stop-color:#000000;stop-opacity:1"
     d="M 132.75901,1.4583008e-6 A 21.0021,21.0021 0 0 0 132.35667,0.03516146 a 21,21 0 0 0 -1.5957,0.138672 21.0021,21.0021 0 0 0 -1.1875,0.15039 21,21 0 0 0 -1.59766,0.363282 21.0021,21.0021 0 0 0 -1.11523,0.292968 21,21 0 0 0 -1.55469,0.58203204 21.0021,21.0021 0 0 0 -1.0625,0.435546 21,21 0 0 0 -0.30664,0.126954 21,21 0 0 0 -1.11133,0.638671 21.0021,21.0021 0 0 0 -1.04883,0.59961 21,21 0 0 0 -1.30469,0.951172 21.0021,21.0021 0 0 0 -0.9414,0.71875 21,21 0 0 0 -1.2207,1.171875 21.0021,21.0021 0 0 0 -0.78711,0.783203 21,21 0 0 0 -1.05469,1.330078 21.0021,21.0021 0 0 0 -0.6836,0.888672 21,21 0 0 0 -0.8789,1.4882805 21.0021,21.0021 0 0 0 -0.50977,0.861328 l -0.0703,0.140625 -82.583984,164.16992 c 19.57348,-11.66964 39.03738,-18.25204 57.65429,-21.15234 l 43.484384,-86.441403 0.0195,0.0391 58.66211,120.087893 c -3.82813,-1.51721 -7.62163,-3.06533 -11.70899,-4.38281 C 133.3383,169.02447 67.346826,170.71769 6.5051038,228.75586 a 21,21 0 0 0 -0.701172,29.68945 21,21 0 0 0 29.6914042,0.70117 c 50.82547,-48.48345 95.367254,-46.7916 131.470714,-35.1543 36.10346,11.63732 60.45312,35.00586 60.45312,35.00586 A 21.0021,21.0021 0 0 0 260.9387,234.73437 L 152.02464,11.775392 a 21,21 0 0 0 -17.41797,-11.73242254 21,21 0 0 0 -1.84766,-0.0059 z" />
</svg>